PathFileType  4	(X/Y/Z) C:\Users\antoi\Documents\MyRepositories\mobilecap\ResultsAnalysis
DataRate	CameraRate	NumFrames	NumMarkers	Units	OrigDataRate	OrigDataStartFrame	OrigNumFrames
100.0	100.0	4	51	mm	100.0	708	1414
Frame#	Time	r_knee			r_shank_antsup			r_ankle			r_calc			r_5meta			r_toe			L_knee			L_shank_antsup			L_ankle			L_calc			L_5meta			L_toe			r_sh2			r_sh3			r_sh4			L_sh2			L_sh3			r_thigh1			r_thigh2			r_thigh3			r_thigh4			r_thigh5			L_thigh1			L_thigh2			L_thigh3			L_thigh4			r.ASIS			r.PSIS			L.ASIS			L.PSIS			C7			R_Shoulder			L_Shoulder			R_Sternum			L_Sternum			R_humerus			R_elbow_med			R_elbow_lat			R_forearm			R_wrist_radius			R_wrist_ulna			L_humerus			L_elbow_med			L_elbow_lat			L_forearm			L_wrist_radius			L_wrist_ulna			R_HJC			L_HJC			R_HJC_reg			L_HJC_reg			
		X1	Y1	Z1	X2	Y2	Z2	X3	Y3	Z3	X4	Y4	Z4	X5	Y5	Z5	X6	Y6	Z6	X7	Y7	Z7	X8	Y8	Z8	X9	Y9	Z9	X10	Y10	Z10	X11	Y11	Z11	X12	Y12	Z12	X13	Y13	Z13	X14	Y14	Z14	X15	Y15	Z15	X16	Y16	Z16	X17	Y17	Z17	X18	Y18	Z18	X19	Y19	Z19	X20	Y20	Z20	X21	Y21	Z21	X22	Y22	Z22	X23	Y23	Z23	X24	Y24	Z24	X25	Y25	Z25	X26	Y26	Z26	X27	Y27	Z27	X28	Y28	Z28	X29	Y29	Z29	X30	Y30	Z30	X31	Y31	Z31	X32	Y32	Z32	X33	Y33	Z33	X34	Y34	Z34	X35	Y35	Z35	X36	Y36	Z36	X37	Y37	Z37	X38	Y38	Z38	X39	Y39	Z39	X40	Y40	Z40	X41	Y41	Z41	X42	Y42	Z42	X43	Y43	Z43	X44	Y44	Z44	X45	Y45	Z45	X46	Y46	Z46	X47	Y47	Z47	X48	Y48	Z48	X49	Y49	Z49	X50	Y50	Z50	X51	Y51	Z51	

708	7.07000000	-89.68222	467.72775	-348.20791	-68.01222	345.57273	-379.33546	-288.23691	97.46952	-444.34078	-351.52353	67.92552	-510.03643	-181.94150	36.43041	-372.37317	-127.14372	57.20394	-435.15020	-134.12414	495.33055	-923.51811	-82.92635	387.95351	-929.05979	-281.85499	98.33351	-905.98762	-345.49832	70.15738	-847.85202	-154.30661	35.22478	-955.09169	-114.82061	58.43207	-890.24520	-114.36367	248.38034	-422.92785	-132.68641	356.23521	-337.42931	-173.27764	248.35213	-362.81263	-165.21436	419.40678	-951.90108	-191.73730	301.50510	-965.98198	-273.34533	638.12015	-399.50025	-164.84135	609.97472	-390.85424	-153.81472	574.81932	-334.94665	-298.74046	564.52902	-316.18938	-183.26175	529.99244	-319.24350	-371.87324	546.36495	-870.01338	-243.13620	518.72603	-913.42441	-331.44676	633.87988	-812.45390	-206.97655	614.13266	-864.44836	-396.54006	666.62683	-453.65630	-497.02237	733.76540	-536.72392	-363.09054	615.05081	-709.02379	-492.47985	725.11613	-631.11551	-72.94274	1010.85149	-569.62849	-19.93858	908.31912	-393.53007	3.32293	916.19692	-718.87255	-3.52288	854.96356	-541.82348	-5.57221	853.16752	-584.11713	33.89047	797.28688	-316.37627	72.99313	564.37283	-330.09676	102.02574	614.67656	-255.81604	207.43427	705.57591	-351.87971	291.41471	752.22611	-416.53469	323.67395	724.60533	-410.49866	53.91188	787.55915	-798.97695	51.56821	554.05833	-784.24203	99.33860	598.25497	-842.37706	172.81736	687.84260	-726.91281	258.68968	736.52171	-666.73854	290.30682	704.19667	-680.71541	-469.71825	603.59101	-474.91045	-461.09538	564.50260	-684.51457	-472.78944	602.29712	-487.80214	-464.49116	586.49633	-660.23816	
709	7.08000000	-89.74219	468.14629	-348.50358	-68.20465	345.96321	-379.53469	-288.25673	97.45856	-444.19943	-351.49585	68.13474	-510.16366	-181.93686	36.39703	-372.38527	-127.12921	57.16724	-435.10485	-134.43840	495.69218	-922.70058	-83.30482	388.14344	-928.32828	-281.88740	98.36479	-905.97336	-345.50321	70.14520	-847.84101	-154.30686	35.22266	-955.10196	-114.83842	58.45270	-890.25706	-114.46759	248.61362	-423.04554	-132.71007	356.41375	-337.70660	-173.22649	248.51596	-362.86946	-165.52424	419.71574	-951.33377	-192.01847	301.56557	-965.24952	-272.17603	640.30745	-398.82814	-163.80493	611.22468	-390.60898	-152.86222	575.94543	-334.96665	-298.06748	566.76436	-315.81008	-182.75076	531.19872	-319.15702	-371.75004	549.06149	-869.54006	-243.29700	520.38291	-912.97577	-330.59957	636.43215	-812.24729	-206.31132	615.21531	-863.62830	-395.24288	669.98521	-452.51139	-496.56927	737.75708	-535.69411	-362.59815	618.76680	-708.02456	-492.18024	729.16505	-630.15915	-73.74317	1015.96096	-569.60766	-20.40204	913.60060	-393.56189	2.19944	921.46113	-719.11775	-4.15456	860.32338	-541.93429	-6.30436	858.53127	-583.94668	33.36182	802.27083	-316.36294	72.50820	568.23762	-329.71456	100.99678	619.44208	-255.83341	206.55190	709.89468	-351.92136	290.54618	756.06514	-417.10586	322.88641	728.63248	-410.64146	52.47082	792.64568	-799.28593	49.78846	559.16916	-784.98341	97.68693	603.30086	-842.94957	171.31534	692.70351	-727.60864	257.34584	741.14734	-667.28945	288.88852	708.74033	-681.31533	-468.94019	607.32662	-473.86757	-460.71902	568.35695	-683.51121	-471.89794	605.92786	-486.63391	-463.88632	590.24355	-659.07260	
710	7.09000000	-89.80222	468.56672	-348.97488	-68.39537	346.31835	-379.80195	-288.29773	97.48299	-444.05305	-351.52948	68.26595	-510.17449	-181.89580	36.38999	-372.36285	-127.11625	57.19990	-435.12657	-134.85007	496.21031	-922.11268	-83.75411	388.39581	-927.61227	-281.96623	98.36406	-905.95191	-345.51659	70.13957	-847.88983	-154.30153	35.22829	-955.10053	-114.85980	58.47664	-890.25089	-114.62913	248.84558	-423.24463	-132.82308	356.62739	-338.11723	-173.24356	248.72134	-363.00682	-166.05731	420.12749	-950.60979	-192.35400	301.74132	-964.69961	-270.93519	642.65018	-398.24902	-162.79011	612.46536	-390.43826	-151.92487	577.10543	-334.81011	-297.31723	568.93404	-315.60169	-182.24533	532.49587	-318.97696	-371.70218	551.85941	-868.63470	-243.53179	522.17035	-912.59290	-329.79727	639.24885	-812.21983	-205.74533	616.54394	-862.90540	-393.82378	673.62496	-451.47660	-496.11911	742.08235	-534.77442	-362.05361	622.84724	-707.15217	-491.96048	733.61333	-629.25857	-74.53761	1021.40903	-569.52124	-20.88049	919.32112	-393.51607	1.03104	927.09723	-719.39482	-4.73893	866.08162	-542.00819	-7.03422	864.22080	-583.94008	32.89380	807.55221	-316.34095	71.27906	573.53132	-329.43618	99.97474	624.72845	-255.60642	205.61840	714.67298	-351.91123	289.68952	760.71941	-417.12372	322.04501	733.17340	-410.69621	51.02104	798.03916	-799.50195	47.99835	564.63405	-785.81858	96.01383	608.70633	-843.63837	169.81610	697.95990	-728.31602	256.05006	746.28961	-667.77638	287.43626	713.78887	-682.11816	-468.08175	611.36813	-472.93878	-460.31864	572.57737	-682.63163	-470.86023	609.81903	-485.53601	-463.27029	594.36072	-657.99283	
711	7.10000000	-89.97635	468.98793	-349.67202	-68.57353	346.69832	-380.09839	-288.33227	97.51651	-443.85843	-351.57835	68.24008	-509.98383	-181.86177	36.36428	-372.33263	-127.13239	57.24500	-435.18209	-135.47349	496.80158	-921.42073	-84.32150	388.90972	-927.15068	-282.08772	98.36036	-905.92854	-345.56144	70.10714	-847.92045	-154.30812	35.25848	-955.08302	-114.88835	58.51264	-890.22794	-114.82308	249.06661	-423.54153	-132.98314	356.83000	-338.54320	-173.31269	249.00701	-363.14785	-166.80428	420.48270	-949.71470	-192.79659	302.18516	-964.41256	-269.51344	645.05987	-397.86680	-161.77355	613.77222	-390.28264	-151.12272	578.19490	-334.69139	-296.43702	571.06354	-315.58813	-181.77319	533.92624	-318.86033	-371.71182	554.77023	-867.68514	-243.88679	523.98806	-911.85891	-329.15762	642.00683	-811.63679	-205.29369	618.10603	-862.41583	-392.10614	677.36229	-450.85570	-495.62820	746.74646	-533.89699	-362.02296	627.36580	-706.85310	-491.76205	738.36436	-628.45734	-75.35530	1027.14262	-569.35154	-21.34885	925.39277	-393.39548	-0.12848	933.02738	-719.51939	-5.26920	872.14777	-541.92971	-7.75020	870.27261	-583.80657	32.43969	813.20409	-316.26343	69.48080	579.89746	-329.34498	98.99309	630.32767	-255.29351	204.66346	719.86071	-351.93667	288.82077	765.94572	-416.79049	321.07751	738.10579	-410.79347	49.59639	803.86796	-799.84986	46.31399	570.40824	-786.62309	94.31629	614.50191	-844.36612	168.31819	703.56291	-729.02836	254.72655	751.88720	-668.48014	285.94981	719.26401	-682.96546	-467.04668	615.60018	-472.30440	-460.33596	577.23274	-682.10990	-469.88311	614.05630	-484.86074	-462.83147	598.76747	-657.33422	
